# This PCD file was generated using the MATLAB® pcwrite function
# from Computer Vision Toolbox®.
# .PCD v.7 - Point Cloud Data file format
VERSION .7
FIELDS x y z rgb
SIZE 4 4 4 4
TYPE F F F F
COUNT 1 1 1 1
WIDTH 394
HEIGHT 1
VIEWPOINT 0 0 0 1 0 0 0
POINTS 394
DATA ascii
-0.044471 0.039068 0.375210 9.690645899e-39
-0.044456 0.039844 0.375085 8.123320191e-39
-0.043550 0.038164 0.374085 9.593042658e-39
-0.043536 0.038938 0.373960 1.042172993e-38
-0.043521 0.039711 0.373835 7.747337800e-39
-0.043521 0.040498 0.373835 1.005222855e-38
-0.043507 0.041271 0.373710 9.316102641e-39
-0.043507 0.042057 0.373710 7.104486525e-39
-0.043521 0.042858 0.373835 8.856203492e-39
-0.043536 0.043659 0.373960 7.291394516e-39
-0.043579 0.044490 0.374335 5.355286289e-39
-0.042835 0.036651 0.374710 1.384760340e-39
-0.042777 0.037389 0.374210 1.934697120e-39
-0.042749 0.038151 0.373960 2.026166877e-39
-0.042735 0.038925 0.373835 2.393151530e-39
-0.042735 0.039711 0.373835 2.484275167e-39
-0.042720 0.040484 0.373710 2.116211514e-39
-0.042720 0.041271 0.373710 1.932899254e-39
-0.042706 0.042043 0.373585 1.566274734e-39
-0.042692 0.042815 0.373460 2.206242137e-39
-0.042692 0.043600 0.373460 2.391712397e-39
-0.042677 0.044371 0.373335 1.655586491e-39
-0.042692 0.045172 0.373460 4.982187770e-39
-0.042663 0.045927 0.373210 2.300955900e-39
-0.042649 0.046697 0.373085 1.932546126e-39
-0.042649 0.047482 0.373085 3.223638072e-39
-0.042635 0.048250 0.372960 4.330338757e-39
-0.042635 0.049035 0.372960 2.577542790e-39
-0.042620 0.049803 0.372835 5.807266701e-39
-0.042620 0.050588 0.372835 7.374599415e-39
-0.042606 0.051355 0.372710 6.270409856e-39
-0.042606 0.052139 0.372710 9.314663508e-39
-0.042606 0.052923 0.372710 9.222833617e-39
-0.042606 0.053707 0.372710 4.981834643e-39
-0.042004 0.036614 0.374335 5.332981822e-39
-0.041962 0.037364 0.373960 5.426253649e-39
-0.041948 0.038138 0.373835 5.609198768e-39
-0.041934 0.038912 0.373710 5.700672729e-39
-0.041934 0.039698 0.373710 5.608477100e-39
-0.041934 0.040484 0.373710 5.517000336e-39
-0.041920 0.041257 0.373585 5.517000336e-39
-0.041906 0.042029 0.373460 4.596843304e-39
-0.041906 0.042815 0.373460 4.505366541e-39
-0.041892 0.043586 0.373335 4.966347493e-39
-0.041878 0.044356 0.373210 4.506814082e-39
-0.041878 0.045142 0.373210 4.781603106e-39
-0.041864 0.045912 0.373085 4.506814082e-39
-0.041864 0.046697 0.373085 4.506816885e-39
-0.041850 0.047466 0.372960 4.323504625e-39
-0.041850 0.048250 0.372960 4.046917735e-39
-0.041850 0.049035 0.372960 3.862523673e-39
-0.041836 0.049803 0.372835 4.048354066e-39
-0.041822 0.050571 0.372710 3.313668695e-39
-0.041822 0.051355 0.372710 3.313315568e-39
-0.041822 0.052139 0.372710 3.038167812e-39
-0.041822 0.052923 0.372710 2.393877403e-39
-0.041794 0.056023 0.372460 2.760862056e-39
-0.041794 0.056806 0.372460 3.037081806e-39
-0.041794 0.057590 0.372460 2.668299286e-39
-0.041794 0.058374 0.372460 2.391712397e-39
-0.041794 0.059157 0.372460 2.576100854e-39
-0.041990 0.060223 0.374210 2.021848075e-39
-0.041990 0.061010 0.374210 2.021848075e-39
-0.042004 0.061818 0.374335 1.930731445e-39
-0.041836 0.063139 0.372835 1.471921104e-39
-0.041203 0.036602 0.374210 6.342447808e-39
-0.041175 0.037364 0.373960 6.250249375e-39
-0.041161 0.038138 0.373835 5.974015613e-39
-0.041148 0.038912 0.373710 5.974012811e-39
-0.041148 0.039698 0.373710 5.974012811e-39
-0.041134 0.040471 0.373585 5.974012811e-39
-0.041134 0.041257 0.373585 5.607029558e-39
-0.041120 0.042029 0.373460 5.514833928e-39
-0.041106 0.042800 0.373335 5.514833928e-39
-0.041106 0.043586 0.373335 5.332243337e-39
-0.041093 0.044356 0.373210 5.148217816e-39
-0.041093 0.045142 0.373210 4.963829359e-39
-0.041079 0.045912 0.373085 4.228060785e-39
-0.041079 0.046697 0.373085 4.781237367e-39
-0.041065 0.047466 0.372960 4.228063588e-39
-0.041065 0.048250 0.372960 4.505369343e-39
-0.041051 0.049019 0.372835 4.779788424e-39
-0.041051 0.049803 0.372835 4.412452045e-39
-0.041038 0.050571 0.372710 4.320975281e-39
-0.041038 0.051355 0.372710 4.320975281e-39
-0.041038 0.052139 0.372710 4.413170911e-39
-0.041024 0.052906 0.372585 4.138381887e-39
-0.041024 0.053689 0.372585 4.413170911e-39
-0.041010 0.054455 0.372460 4.779435297e-39
-0.041010 0.055239 0.372460 4.504647675e-39
-0.041010 0.056023 0.372460 4.135865155e-39
-0.041010 0.056806 0.372460 4.320256415e-39
-0.040996 0.057571 0.372335 4.687239667e-39
-0.040996 0.058354 0.372335 4.687239667e-39
-0.040996 0.059137 0.372335 4.686520801e-39
-0.040996 0.059921 0.372335 4.409933911e-39
-0.040996 0.060704 0.372335 4.870912061e-39
-0.040996 0.061488 0.372335 5.237896714e-39
-0.040996 0.062271 0.372335 4.963460818e-39
-0.041010 0.063076 0.372460 4.231306192e-39
-0.041010 0.063859 0.372460 2.576103657e-39
-0.040388 0.036577 0.373960 6.524319533e-39
-0.040375 0.037352 0.373835 6.523590858e-39
-0.040361 0.038125 0.373710 6.523942584e-39
-0.040361 0.038912 0.373710 6.523942584e-39
-0.040361 0.039698 0.373710 5.970768805e-39
-0.040348 0.040471 0.373585 6.431746954e-39
-0.040334 0.041243 0.373460 5.789254411e-39
-0.040334 0.042029 0.373460 5.789254411e-39
-0.040321 0.042800 0.373335 5.605582017e-39
-0.040307 0.043571 0.373210 5.882168907e-39
-0.040307 0.044356 0.373210 5.238247039e-39
-0.040307 0.045142 0.373210 5.238249841e-39
-0.040294 0.045912 0.373085 4.963460818e-39
-0.040294 0.046697 0.373085 4.963460818e-39
-0.040280 0.047466 0.372960 4.871262385e-39
-0.040280 0.048250 0.372960 4.963460818e-39
-0.040267 0.049019 0.372835 4.687592794e-39
-0.040267 0.049803 0.372835 4.687592794e-39
-0.040253 0.050571 0.372710 4.320609542e-39
-0.040253 0.051355 0.372710 4.779788424e-39
-0.040240 0.052122 0.372585 4.505000802e-39
-0.040240 0.052906 0.372585 4.412805172e-39
-0.040226 0.053671 0.372460 4.687592794e-39
-0.040226 0.054455 0.372460 4.687592794e-39
-0.040226 0.055239 0.372460 4.779069558e-39
-0.040213 0.056004 0.372335 4.686873928e-39
-0.040213 0.056787 0.372335 4.686873928e-39
-0.040213 0.057571 0.372335 4.686873928e-39
-0.040199 0.058334 0.372210 4.594678298e-39
-0.040199 0.059118 0.372210 4.594678298e-39
-0.040199 0.059901 0.372210 4.869467322e-39
-0.040199 0.060684 0.372210 4.869467322e-39
-0.040199 0.061467 0.372210 5.053858582e-39
-0.040213 0.062271 0.372335 5.146051409e-39
-0.040213 0.063054 0.372335 4.963458015e-39
-0.040226 0.063859 0.372460 4.320259217e-39
-0.039602 0.036577 0.373960 6.616868290e-39
-0.039588 0.037352 0.373835 6.799090340e-39
-0.039575 0.038125 0.373710 6.890560097e-39
-0.039575 0.038912 0.373710 6.799443467e-39
-0.039562 0.039685 0.373585 6.432100081e-39
-0.039562 0.040471 0.373585 6.431746954e-39
-0.039549 0.041243 0.373460 6.064043434e-39
-0.039549 0.042029 0.373460 5.789254411e-39
-0.039535 0.042800 0.373335 5.789254411e-39
-0.039522 0.043571 0.373210 5.697777647e-39
-0.039522 0.044356 0.373210 5.330794395e-39
-0.039509 0.045127 0.373085 5.146051409e-39
-0.039509 0.045912 0.373085 4.779066755e-39
-0.039496 0.046681 0.372960 4.779066755e-39
-0.039496 0.047466 0.372960 4.779066755e-39
-0.039496 0.048250 0.372960 4.779066755e-39
-0.039482 0.049019 0.372835 4.686873928e-39
-0.039469 0.049786 0.372710 4.686873928e-39
-0.039469 0.050571 0.372710 4.779069558e-39
-0.039456 0.052122 0.372585 4.597193629e-39
-0.039456 0.052906 0.372585 4.226614645e-39
-0.039443 0.053671 0.372460 4.595394362e-39
-0.039443 0.054455 0.372460 4.686873928e-39
-0.039443 0.055239 0.372460 4.779066755e-39
-0.039429 0.056004 0.372335 4.686871126e-39
-0.039429 0.056787 0.372335 4.869464519e-39
-0.039416 0.057551 0.372210 4.686871126e-39
-0.039416 0.058334 0.372210 4.594675496e-39
-0.039416 0.059118 0.372210 4.685073260e-39
-0.039416 0.059901 0.372210 4.685073260e-39
-0.039416 0.060684 0.372210 5.052056512e-39
-0.039416 0.061467 0.372210 5.236447772e-39
-0.039416 0.062250 0.372210 5.054207505e-39
-0.039416 0.063033 0.372210 5.054207505e-39
-0.039429 0.063838 0.372335 4.871265188e-39
-0.038815 0.036577 0.373960 6.707982118e-39
-0.038802 0.037352 0.373835 6.982755727e-39
-0.038789 0.038125 0.373710 6.982755727e-39
-0.038776 0.038899 0.373585 6.799443467e-39
-0.038776 0.039685 0.373585 6.522856577e-39
-0.038763 0.040457 0.373460 6.522856577e-39
-0.038763 0.041243 0.373460 6.247708821e-39
-0.038750 0.042015 0.373335 6.247708821e-39
-0.038737 0.042786 0.373210 5.971847804e-39
-0.038737 0.043571 0.373210 5.697058781e-39
-0.038737 0.044356 0.373210 5.513386387e-39
-0.038724 0.045127 0.373085 4.869816245e-39
-0.038711 0.045896 0.372960 4.962011875e-39
-0.038711 0.046681 0.372960 5.054207505e-39
-0.038711 0.047466 0.372960 5.054207505e-39
-0.038698 0.048234 0.372835 4.962011875e-39
-0.038698 0.049019 0.372835 4.686871126e-39
-0.038685 0.049786 0.372710 4.686873928e-39
-0.038685 0.050571 0.372710 4.779069558e-39
-0.038672 0.051338 0.372585 4.779066755e-39
-0.038672 0.052122 0.372585 4.871981251e-39
-0.038659 0.052888 0.372460 4.687589992e-39
-0.038659 0.053671 0.372460 4.686871126e-39
-0.038659 0.054455 0.372460 4.686871126e-39
-0.038646 0.055220 0.372335 4.961660149e-39
-0.038646 0.056004 0.372335 5.236799498e-39
-0.038633 0.056768 0.372210 5.328995127e-39
-0.038633 0.057551 0.372210 4.869816245e-39
-0.038633 0.058334 0.372210 4.685424986e-39
-0.038633 0.059118 0.372210 4.960565735e-39
-0.038633 0.059901 0.372210 5.144238129e-39
-0.038633 0.060684 0.372210 5.144238129e-39
-0.038633 0.061467 0.372210 5.236799498e-39
-0.038633 0.062250 0.372210 5.328995127e-39
-0.038633 0.063033 0.372210 5.421190757e-39
-0.038633 0.063816 0.372210 5.146051409e-39
-0.038015 0.036565 0.373835 6.523942584e-39
-0.038002 0.037339 0.373710 7.257544751e-39
-0.038002 0.038125 0.373710 6.982755727e-39
-0.037990 0.038899 0.373585 6.799443467e-39
-0.037977 0.039671 0.373460 6.522856577e-39
-0.037977 0.040457 0.373460 6.522856577e-39
-0.037977 0.041243 0.373460 6.247708821e-39
-0.037964 0.042015 0.373335 6.247708821e-39
-0.037952 0.042786 0.373210 5.971847804e-39
-0.037952 0.043571 0.373210 5.697058781e-39
-0.037939 0.044342 0.373085 5.513386387e-39
-0.037939 0.045127 0.373085 5.421190757e-39
-0.037926 0.045896 0.372960 5.236799498e-39
-0.037926 0.046681 0.372960 4.962011875e-39
-0.037926 0.047466 0.372960 4.962011875e-39
-0.037913 0.048234 0.372835 4.962011875e-39
-0.037901 0.049002 0.372710 4.686871126e-39
-0.037901 0.049786 0.372710 5.240044905e-39
-0.037901 0.050571 0.372710 4.686871126e-39
-0.037888 0.051338 0.372585 4.686871126e-39
-0.037888 0.052122 0.372585 4.872332977e-39
-0.037875 0.052888 0.372460 4.687222851e-39
-0.037875 0.053671 0.372460 4.687222851e-39
-0.037875 0.054455 0.372460 4.594675496e-39
-0.037863 0.055220 0.372335 4.962011875e-39
-0.037850 0.055985 0.372210 5.328995127e-39
-0.037850 0.056768 0.372210 5.421190757e-39
-0.037850 0.057551 0.372210 5.052408238e-39
-0.037850 0.058334 0.372210 5.328276261e-39
-0.037850 0.059118 0.372210 5.052042499e-39
-0.037850 0.059901 0.372210 5.144238129e-39
-0.037850 0.060684 0.372210 5.144238129e-39
-0.037850 0.061467 0.372210 5.328629388e-39
-0.037850 0.062250 0.372210 5.328995127e-39
-0.037850 0.063033 0.372210 5.328995127e-39
-0.037850 0.063816 0.372210 5.146403135e-39
-0.037977 0.064817 0.373460 2.663250408e-39
-0.037229 0.036565 0.373835 6.799090340e-39
-0.037216 0.037339 0.373710 7.257541948e-39
-0.037204 0.038113 0.373585 7.257541948e-39
-0.037204 0.038899 0.373585 6.890557294e-39
-0.037191 0.039671 0.373460 6.522856577e-39
-0.037191 0.040457 0.373460 6.522856577e-39
-0.037179 0.041229 0.373335 6.155513192e-39
-0.037166 0.042001 0.373210 6.063317562e-39
-0.037166 0.042786 0.373210 5.972200932e-39
-0.037166 0.043571 0.373210 5.605216278e-39
-0.037154 0.044342 0.373085 5.513386387e-39
-0.037141 0.045111 0.372960 5.329348255e-39
-0.037141 0.045896 0.372960 5.237152625e-39
-0.037141 0.046681 0.372960 5.237152625e-39
-0.037129 0.047450 0.372835 5.329348255e-39
-0.037129 0.048234 0.372835 4.962365002e-39
-0.037117 0.049002 0.372710 4.961660149e-39
-0.037117 0.049786 0.372710 4.961660149e-39
-0.037117 0.050571 0.372710 4.961660149e-39
-0.037104 0.051338 0.372585 4.779418481e-39
-0.037092 0.052888 0.372460 4.226244702e-39
-0.037092 0.053671 0.372460 4.595027222e-39
-0.037079 0.054437 0.372335 4.410635962e-39
-0.037079 0.055220 0.372335 4.869816245e-39
-0.037067 0.055985 0.372210 5.236799498e-39
-0.037067 0.056768 0.372210 5.328276261e-39
-0.037067 0.057551 0.372210 5.052408238e-39
-0.037067 0.058334 0.372210 5.143885002e-39
-0.037054 0.059098 0.372085 5.144238129e-39
-0.037054 0.059881 0.372085 5.052042499e-39
-0.037054 0.060663 0.372085 5.052042499e-39
-0.037054 0.061446 0.372085 5.328629388e-39
-0.037067 0.062250 0.372210 5.420825018e-39
-0.037067 0.063033 0.372210 5.328995127e-39
-0.037067 0.063816 0.372210 5.513386387e-39
-0.037092 0.064643 0.372460 2.846921400e-39
-0.036430 0.036553 0.373710 6.799090340e-39
-0.036430 0.037339 0.373710 7.257541948e-39
-0.036418 0.038113 0.373585 7.257541948e-39
-0.036405 0.038886 0.373460 6.890557294e-39
-0.036405 0.039671 0.373460 6.430658145e-39
-0.036405 0.040457 0.373460 6.522856577e-39
-0.036393 0.041229 0.373335 6.155513192e-39
-0.036381 0.042001 0.373210 6.063317562e-39
-0.036381 0.042786 0.373210 5.880005302e-39
-0.036381 0.043571 0.373210 5.605216278e-39
-0.036369 0.044342 0.373085 5.513739514e-39
-0.036357 0.045111 0.372960 5.421543884e-39
-0.036357 0.045896 0.372960 5.329348255e-39
-0.036357 0.046681 0.372960 5.237152625e-39
-0.036345 0.047450 0.372835 5.329348255e-39
-0.036345 0.048234 0.372835 5.054560632e-39
-0.036332 0.049002 0.372710 4.869816245e-39
-0.036332 0.049786 0.372710 5.053855779e-39
-0.036332 0.050571 0.372710 5.053855779e-39
-0.036320 0.051338 0.372585 4.871614111e-39
-0.036308 0.052104 0.372460 5.332592261e-39
-0.036308 0.052888 0.372460 4.595027222e-39
-0.036308 0.053671 0.372460 4.687222851e-39
-0.036296 0.054437 0.372335 4.410635962e-39
-0.036284 0.055202 0.372210 4.685424986e-39
-0.036284 0.055985 0.372210 4.960212608e-39
-0.036284 0.056768 0.372210 5.143885002e-39
-0.036271 0.057532 0.372085 5.143885002e-39
-0.036271 0.058315 0.372085 5.143885002e-39
-0.036271 0.059098 0.372085 5.144238129e-39
-0.036271 0.059881 0.372085 5.052042499e-39
-0.036271 0.060663 0.372085 5.144238129e-39
-0.036271 0.061446 0.372085 5.144238129e-39
-0.036271 0.062229 0.372085 5.328629388e-39
-0.036284 0.063033 0.372210 5.329348255e-39
-0.036284 0.063816 0.372210 5.328995127e-39
-0.036296 0.064621 0.372335 3.674887006e-39
-0.035643 0.036553 0.373710 6.799090340e-39
-0.035632 0.037327 0.373585 7.532689704e-39
-0.035632 0.038113 0.373585 7.533042831e-39
-0.035620 0.038886 0.373460 7.165699445e-39
-0.035620 0.039671 0.373460 6.430658145e-39
-0.035608 0.040444 0.373335 6.522853775e-39
-0.035608 0.041229 0.373335 6.247708821e-39
-0.035596 0.042001 0.373210 6.155513192e-39
-0.035596 0.042786 0.373210 6.247708821e-39
-0.035584 0.043557 0.373085 5.972200932e-39
-0.035584 0.044342 0.373085 5.513020648e-39
-0.035572 0.045111 0.372960 5.421543884e-39
-0.035572 0.045896 0.372960 5.329348255e-39
-0.035572 0.046681 0.372960 5.237152625e-39
-0.035560 0.047450 0.372835 5.421543884e-39
-0.035560 0.048234 0.372835 4.870169373e-39
-0.035548 0.049002 0.372710 4.962011875e-39
-0.035548 0.049786 0.372710 4.962011875e-39
-0.035536 0.050554 0.372585 4.961660149e-39
-0.035536 0.051338 0.372585 4.687222851e-39
-0.035524 0.052104 0.372460 4.779418481e-39
-0.035524 0.052888 0.372460 4.595027222e-39
-0.035524 0.053671 0.372460 4.595027222e-39
-0.035512 0.054437 0.372335 4.595027222e-39
-0.035500 0.055202 0.372210 4.685424986e-39
-0.035500 0.055985 0.372210 5.051689372e-39
-0.035500 0.056768 0.372210 5.143885002e-39
-0.035489 0.057532 0.372085 5.143885002e-39
-0.035489 0.058315 0.372085 5.144238129e-39
-0.035489 0.059098 0.372085 5.419027152e-39
-0.035489 0.059881 0.372085 5.052042499e-39
-0.035489 0.060663 0.372085 5.144238129e-39
-0.035489 0.061446 0.372085 5.328629388e-39
-0.035489 0.062229 0.372085 5.328629388e-39
-0.035489 0.063012 0.372085 5.329348255e-39
-0.035500 0.063816 0.372210 5.421190757e-39
-0.035500 0.064600 0.372210 4.136218282e-39
-0.034857 0.036553 0.373710 6.521424450e-39
-0.034846 0.037327 0.373585 7.440494074e-39
-0.034834 0.038100 0.373460 7.440847201e-39
-0.034834 0.038886 0.373460 7.165699445e-39
-0.034834 0.039671 0.373460 6.522853775e-39
-0.034822 0.040444 0.373335 6.707245035e-39
-0.034811 0.041215 0.373210 6.155513192e-39
-0.034811 0.042001 0.373210 6.155513192e-39
-0.034811 0.042786 0.373210 6.155513192e-39
-0.034799 0.043557 0.373085 5.880005302e-39
-0.034799 0.044342 0.373085 5.697411908e-39
-0.034787 0.045111 0.372960 5.421543884e-39
-0.034787 0.045896 0.372960 5.329348255e-39
-0.034787 0.046681 0.372960 5.329348255e-39
-0.034776 0.047450 0.372835 5.421543884e-39
-0.034764 0.048218 0.372710 5.054560632e-39
-0.034764 0.049002 0.372710 4.962011875e-39
-0.034764 0.049786 0.372710 4.869816245e-39
-0.034752 0.050554 0.372585 5.330442669e-39
-0.034752 0.051338 0.372585 4.595027222e-39
-0.034741 0.052104 0.372460 4.595027222e-39
-0.034741 0.052888 0.372460 4.410635962e-39
-0.034729 0.053653 0.372335 4.685424986e-39
-0.034729 0.054437 0.372335 4.685778113e-39
-0.034717 0.055202 0.372210 4.870169373e-39
-0.034717 0.056768 0.372210 5.143885002e-39
-0.034706 0.057532 0.372085 5.051689372e-39
-0.034706 0.058315 0.372085 5.144238129e-39
-0.034706 0.059098 0.372085 5.326831523e-39
-0.034706 0.059881 0.372085 5.326831523e-39
-0.034706 0.061446 0.372085 5.419027152e-39
-0.034706 0.062229 0.372085 5.328629388e-39
-0.034706 0.063012 0.372085 5.237152625e-39
-0.034706 0.063795 0.372085 5.513386387e-39
-0.034717 0.064600 0.372210 3.767435763e-39
-0.034094 0.036577 0.373960 6.982402600e-39
-0.034048 0.037314 0.373460 7.440494074e-39
-0.034048 0.038100 0.373460 7.439768202e-39
-0.034048 0.038886 0.373460 7.440847201e-39